HIERARCHY
ROOT Hips
{
	OFFSET 0.000000 0.000000 0.000000
	CHANNELS 6 Xposition Yposition Zposition Zrotation Yrotation Xrotation 
	JOINT LeftUpLeg_virtual
	{
		OFFSET 0.000000 0.000000 0.000000
		CHANNELS 3 Zrotation Yrotation Xrotation
		JOINT LeftUpLeg
		{
			OFFSET 10.205400 -3.823500 0.155100
			CHANNELS 3 Zrotation Yrotation Xrotation
			JOINT LeftLeg
			{
				OFFSET 0.708757 -12.982077 0.567790
				CHANNELS 3 Zrotation Yrotation Xrotation
				JOINT LeftFoot
				{
					OFFSET -0.708756 -10.717838 -2.184338
					CHANNELS 3 Zrotation Yrotation Xrotation
					JOINT LeftToeBase
					{
						OFFSET 0.108149 -7.191104 7.560241
						CHANNELS 3 Zrotation Yrotation Xrotation
						End Site
						{
							OFFSET 0.000000 0.000000 0.000000
						}
					}
				}
			}
		}
	}
	JOINT RightUpLeg_virtual
	{
		OFFSET 0.000000 0.000000 0.000000
		CHANNELS 3 Zrotation Yrotation Xrotation
		JOINT RightUpLeg
		{
			OFFSET -10.205400 -3.823500 0.005500
			CHANNELS 3 Zrotation Yrotation Xrotation
			JOINT RightLeg
			{
				OFFSET -0.708756 -12.982134 0.610632
				CHANNELS 3 Zrotation Yrotation Xrotation
				JOINT RightFoot
				{
					OFFSET 0.708754 -10.717769 -1.945823
					CHANNELS 3 Zrotation Yrotation Xrotation
					JOINT RightToeBase
					{
						OFFSET -0.108140 -7.191069 7.372968
						CHANNELS 3 Zrotation Yrotation Xrotation
						End Site
						{
							OFFSET 0.000000 0.000000 0.000000
						}
					}
				}
			}
		}
	}
	JOINT Spine_virtual
	{
		OFFSET 0.000000 0.000000 0.000000
		CHANNELS 3 Zrotation Yrotation Xrotation
		JOINT Spine
		{
			OFFSET 0.000000 6.876099 0.125700
			CHANNELS 3 Zrotation Yrotation Xrotation
			JOINT Spine1
			{
				OFFSET 0.000000 8.022060 0.146608
				CHANNELS 3 Zrotation Yrotation Xrotation
				JOINT Spine2
				{
					OFFSET 0.000000 9.168068 0.167552
					CHANNELS 3 Zrotation Yrotation Xrotation
					JOINT Neck_virtual
					{
						OFFSET 0.000000 0.000000 0.000000
						CHANNELS 3 Zrotation Yrotation Xrotation
						JOINT Neck
						{
							OFFSET 0.000000 10.314075 0.188496
							CHANNELS 3 Zrotation Yrotation Xrotation
							JOINT Head
							{
								OFFSET 0.000000 7.643700 -2.377400
								CHANNELS 3 Zrotation Yrotation Xrotation
								End Site
								{
									OFFSET 0.000000 0.000000 0.000000
								}
							}
						}
					}
					JOINT LeftShoulder_virtual
					{
						OFFSET 0.000000 0.000000 0.000000
						CHANNELS 3 Zrotation Yrotation Xrotation
						JOINT LeftShoulder
						{
							OFFSET 4.392200 8.824978 0.174984
							CHANNELS 3 Zrotation Yrotation Xrotation
							JOINT LeftArm
							{
								OFFSET 8.771219 -2.981674 -0.026999
								CHANNELS 3 Zrotation Yrotation Xrotation
								JOINT LeftForeArm
								{
									OFFSET 8.512804 0.000000 -0.000000
									CHANNELS 3 Zrotation Yrotation Xrotation
									JOINT LeftHand
									{
										OFFSET 18.484802 0.000000 -0.000000
										CHANNELS 3 Zrotation Yrotation Xrotation
										End Site
										{
											OFFSET 0.000000 0.000000 0.000000
										}
									}
								}
							}
						}
					}
					JOINT RightShoulder_virtual
					{
						OFFSET 0.000000 0.000000 0.000000
						CHANNELS 3 Zrotation Yrotation Xrotation
						JOINT RightShoulder
						{
							OFFSET -4.392200 8.824993 0.141379
							CHANNELS 3 Zrotation Yrotation Xrotation
							JOINT RightArm
							{
								OFFSET -8.771282 -2.981682 -0.094208
								CHANNELS 3 Zrotation Yrotation Xrotation
								JOINT RightForeArm
								{
									OFFSET -8.494598 0.000000 0.000000
									CHANNELS 3 Zrotation Yrotation Xrotation
									JOINT RightHand
									{
										OFFSET -18.483803 0.000000 0.000001
										CHANNELS 3 Zrotation Yrotation Xrotation
										End Site
										{
											OFFSET 0.000000 0.000000 0.000000
										}
									}
								}
							}
						}
					}
				}
			}
		}
	}
}
MOTION
Frames: 11
Frame Time: 0.033333
29.549889 35.705597 29.627918 0.007066 -24.664038 -0.226307 -4.291008 -2.449194 12.534323 -12.640373 -6.505342 -20.470888 15.145381 7.054750 17.942641 -4.797311 2.840142 10.547647 0.000000 0.000000 0.000000 -1.326664 -1.537861 11.392347 0.906213 -2.294188 -24.416343 -7.413176 -2.913669 48.167761 4.329780 13.487908 15.647444 0.000000 0.000000 0.000000 -2.531939 0.074901 0.794832 1.839038 3.121416 -6.388857 -1.155396 -2.834179 6.961107 0.029846 0.020425 0.027530 -1.265642 -1.450919 6.680128 1.338829 -3.936751 11.035041 0.000000 0.000000 0.000000 -0.127768 -0.957383 3.918618 -14.193320 -13.482565 0.122902 -42.399577 16.248646 11.287952 -6.882097 -42.379965 8.653239 0.000000 0.000000 0.000000 -3.372605 0.044453 3.204184 18.261452 6.865147 2.776984 37.976077 -18.915773 17.450346 -27.211950 80.526926 -26.421815 0.000000 0.000000 0.000000 
29.291542 35.727734 30.669954 0.007220 -24.413181 -0.126027 -4.655055 -2.296858 12.602703 -13.042770 -5.923227 -18.313364 15.338902 7.054572 17.885465 -5.177298 2.807396 8.855255 0.000000 0.000000 0.000000 -1.644358 -1.100844 11.145041 2.350404 -2.821873 -29.694329 -7.568415 -2.394985 44.638001 4.422139 13.934652 16.334642 0.000000 0.000000 0.000000 -2.806103 0.272513 0.558265 2.053870 2.884683 -6.024266 -1.103369 -2.905793 6.862684 -0.017186 0.016539 -0.050097 -1.180192 -1.769198 6.781807 1.230579 -3.604777 10.666122 0.000000 0.000000 0.000000 -0.034448 -1.032643 4.019031 -14.242603 -13.878665 0.340223 -41.598823 14.871074 11.875215 -7.116283 -43.511594 8.574980 0.000000 0.000000 0.000000 -3.200415 -0.050740 3.297322 17.801363 6.928540 2.454399 38.510246 -19.155694 16.691353 -26.024255 80.766919 -25.332977 0.000000 0.000000 0.000000 
29.012333 35.723198 31.705662 -0.000363 -24.253723 -0.137844 -5.006232 -2.222591 12.815366 -13.282749 -5.245090 -16.306279 15.405388 7.242226 17.963937 -5.570576 2.700074 7.181285 0.000000 0.000000 0.000000 -1.768406 -0.776732 10.950417 3.429283 -2.844923 -33.840275 -7.454638 -2.024260 37.861620 4.954454 13.919806 17.810755 0.000000 0.000000 0.000000 -3.024946 0.383886 0.522775 2.257305 2.742587 -5.689325 -1.007053 -2.955196 6.811772 -0.009258 -0.005044 0.008692 -1.092422 -1.627174 6.737189 1.209666 -3.284527 10.202380 0.000000 0.000000 0.000000 0.014617 -1.032400 3.913213 -14.372157 -14.044221 0.641410 -40.968585 13.750980 12.158071 -7.488421 -44.765811 8.741607 0.000000 0.000000 0.000000 -3.105193 0.012334 3.282018 17.150427 6.986513 2.245578 39.305058 -19.505625 15.697909 -25.402493 81.053411 -24.864964 0.000000 0.000000 0.000000 
28.702164 35.680996 32.701012 -0.055786 -24.178028 0.028688 -5.253645 -2.193338 13.045743 -13.392791 -4.668159 -14.535916 15.299012 7.264414 18.080180 -5.786377 2.685443 5.705364 0.000000 0.000000 0.000000 -1.695965 -0.391948 10.746685 4.228943 -2.565093 -37.106399 -7.399933 -1.822672 29.386401 5.833605 13.799165 19.774175 0.000000 0.000000 0.000000 -3.185544 0.516073 0.499898 2.470590 2.709243 -5.481455 -0.966510 -2.963038 6.734408 0.017173 0.027130 -0.023758 -0.999085 -1.740284 6.868149 1.306614 -2.963202 9.671899 0.000000 0.000000 0.000000 0.099799 -1.081823 4.063178 -14.566133 -14.118366 0.800027 -40.618131 12.852000 12.511214 -7.845370 -45.958133 8.984876 0.000000 0.000000 0.000000 -2.970622 -0.024945 3.445336 16.296888 6.943994 1.990706 40.410647 -19.952224 14.881169 -25.943695 81.594936 -25.605512 0.000000 0.000000 0.000000 
28.345898 35.590141 33.686813 -0.014371 -23.965221 -0.045493 -5.528052 -2.231718 13.483449 -13.442276 -4.230963 -12.778831 15.100570 7.101777 18.299984 -5.826691 2.707888 4.371161 0.000000 0.000000 0.000000 -1.653548 -0.214412 10.754520 4.861746 -2.247249 -39.556317 -7.260166 -1.533418 21.081548 6.604721 13.467513 21.571127 0.000000 0.000000 0.000000 -3.340688 0.602932 0.640553 2.508638 2.704305 -5.228288 -0.755560 -3.002160 6.749393 0.004946 0.022549 -0.014985 -0.874753 -1.687298 6.853700 1.499799 -2.653152 9.111125 0.000000 0.000000 0.000000 0.180817 -1.130729 4.079152 -14.795928 -13.986735 1.097543 -40.492414 12.177770 12.810606 -8.224491 -47.016242 9.278901 0.000000 0.000000 0.000000 -2.841796 -0.055970 3.519328 15.326623 6.867115 1.710159 41.805593 -20.443233 14.172948 -28.337791 82.554051 -28.261356 0.000000 0.000000 0.000000 
27.935173 35.446091 34.685261 -0.069898 -23.573966 0.001375 -5.626197 -2.352508 13.950370 -13.484576 -3.939529 -11.211831 14.865061 6.775426 18.620320 -5.785117 2.665563 3.222145 0.000000 0.000000 0.000000 -1.533526 -0.252744 10.753679 5.425531 -1.708807 -41.669635 -7.134073 -1.274260 14.363239 7.072780 12.984151 22.993989 0.000000 0.000000 0.000000 -3.361851 0.654193 0.798516 2.588853 2.707474 -5.080135 -0.583863 -3.049624 6.738598 -0.049206 0.031856 -0.000015 -0.728650 -1.892502 6.929420 1.763236 -2.373728 8.686877 0.000000 0.000000 0.000000 0.330753 -1.263434 4.192503 -15.027400 -13.840945 1.333177 -40.556215 11.630321 13.335538 -8.526283 -47.890390 9.599632 0.000000 0.000000 0.000000 -2.664244 -0.141863 3.560361 14.320206 6.709658 1.503236 43.356665 -20.846260 13.307601 -34.039470 84.013157 -34.268630 0.000000 0.000000 0.000000 
27.432371 35.260784 35.733746 0.088856 -23.061328 0.173175 -5.873861 -2.544829 14.206591 -13.385637 -3.915602 -9.669769 14.954732 6.449781 19.323645 -5.761144 2.500690 2.210295 0.000000 0.000000 0.000000 -1.637967 -0.257062 10.736183 5.875047 -1.161867 -43.387223 -6.999986 -1.036500 9.856857 7.084176 12.433664 23.590094 0.000000 0.000000 0.000000 -3.411463 0.656356 0.840845 2.570737 2.654787 -5.057651 -0.530104 -3.143974 6.734940 0.000775 0.002863 0.036809 -0.575850 -2.003563 7.039644 2.078404 -2.127859 8.414002 0.000000 0.000000 0.000000 0.451041 -1.328157 4.308521 -15.249367 -13.498985 1.435450 -40.629865 11.324849 14.001060 -9.010789 -48.553718 10.110662 0.000000 0.000000 0.000000 -2.532686 -0.200638 3.695759 13.320190 6.594524 1.244675 45.027766 -21.048719 12.399724 -46.793660 85.631659 -47.375213 0.000000 0.000000 0.000000 
26.840641 35.061222 36.817654 -0.008419 -22.766339 0.303683 -6.000020 -2.191710 14.389540 -13.028745 -4.301886 -7.943914 14.867298 5.782717 20.384141 -5.443823 2.165774 1.222203 0.000000 0.000000 0.000000 -1.556538 -0.172902 10.717643 6.309427 -0.577523 -44.362970 -6.871400 -0.915140 7.521275 6.623163 11.893660 23.444619 0.000000 0.000000 0.000000 -3.238459 0.722199 0.914850 2.640738 2.592950 -5.070840 -0.426540 -3.235638 6.725111 -0.025697 0.009397 0.039009 -0.447720 -2.016624 7.124342 2.393445 -1.945437 8.358330 0.000000 0.000000 0.000000 0.556982 -1.408571 4.405642 -15.345350 -13.147282 1.585726 -40.665403 10.975266 14.858346 -9.350252 -49.017973 10.510848 0.000000 0.000000 0.000000 -2.424844 -0.258717 3.792451 12.461182 6.465695 1.021575 46.661663 -21.122382 11.470718 -74.077705 86.844517 -75.034150 0.000000 0.000000 0.000000 
26.171289 34.884411 37.975521 -0.065829 -22.469953 0.480418 -6.219383 -1.634066 14.385948 -12.258911 -4.418249 -6.009143 14.627209 5.216844 21.204676 -5.268775 1.543822 0.403654 0.000000 0.000000 0.000000 -1.449962 0.022055 10.644454 6.679643 -0.124634 -44.502521 -6.660179 -0.833314 6.908400 5.865128 11.301970 22.775146 0.000000 0.000000 0.000000 -3.003081 0.834472 0.929719 2.689271 2.422101 -5.204237 -0.343050 -3.370136 6.716695 -0.008560 -0.003308 0.082647 -0.387060 -2.074990 7.198394 2.763029 -1.805298 8.535294 0.000000 0.000000 0.000000 0.625337 -1.448617 4.455038 -15.408980 -12.784810 1.650427 -40.564282 10.515448 15.934978 -9.805251 -49.319843 11.002090 0.000000 0.000000 0.000000 -2.382809 -0.278550 3.820856 11.761850 6.444852 0.884755 48.106624 -21.046181 10.673473 -112.821297 86.812483 -114.148157 0.000000 0.000000 0.000000 
25.425156 34.753361 39.201729 -0.117566 -21.993216 0.741868 -6.521362 -1.085286 14.394441 -11.151079 -4.464696 -3.733946 14.280951 4.677647 21.493209 -5.286948 0.866187 0.286609 0.000000 0.000000 0.000000 -1.040884 0.233576 10.511458 6.811246 -0.167076 -43.625692 -6.163487 -0.215194 6.542934 5.307037 11.028872 24.403632 0.000000 0.000000 0.000000 -2.724726 0.982617 0.870490 2.720536 2.185700 -5.467085 -0.287192 -3.520929 6.693740 -0.042291 -0.027268 0.078955 -0.258503 -2.191763 7.274583 3.075075 -1.780107 8.870396 0.000000 0.000000 0.000000 0.775823 -1.603446 4.537657 -15.382213 -12.623095 1.764468 -40.322630 9.946188 17.169835 -10.182020 -49.689903 11.394632 0.000000 0.000000 0.000000 -2.306817 -0.422985 3.848313 11.240453 6.348364 0.700143 49.176594 -21.067841 10.145518 -137.871931 85.909013 -139.529071 0.000000 0.000000 0.000000 
24.615313 34.682533 40.466949 -0.159359 -21.725539 0.583785 -6.602899 -0.856480 14.316391 -10.455108 -4.117951 -1.523399 13.745556 4.492633 21.808333 -4.427360 0.963646 0.920102 0.000000 0.000000 0.000000 -0.279320 0.617752 10.470266 6.542430 -0.449940 -41.880032 -5.855073 0.899489 7.636023 5.198432 11.888935 25.709018 0.000000 0.000000 0.000000 -2.446498 1.186858 1.068613 2.743196 1.959346 -5.624134 -0.207176 -3.625759 6.739300 -0.008524 -0.015059 0.049901 -0.210084 -2.269231 7.348625 3.366559 -1.831202 9.335508 0.000000 0.000000 0.000000 0.846989 -1.766551 4.517541 -15.294431 -12.572437 1.941865 -40.059859 9.309965 18.472984 -10.545848 -50.255381 11.735493 0.000000 0.000000 0.000000 -2.305766 -0.595798 3.844174 10.870795 6.290080 0.417256 49.869192 -21.305442 9.910424 -151.188409 84.868440 -153.107214 0.000000 0.000000 0.000000 
